<?xml version="1.0" encoding="UTF-8"?>
<!DOCTYPE svg PUBLIC "-//W3C//DTD SVG 1.0//EN" "http://www.w3.org/TR/2001/REC-SVG-20010904/DTD/svg10.dtd">
<!-- Creator: CorelDRAW 2017 -->
<svg xmlns="http://www.w3.org/2000/svg" xml:space="preserve" width="356px" height="200px" version="1.0" shape-rendering="geometricPrecision" text-rendering="geometricPrecision" image-rendering="optimizeQuality" fill-rule="evenodd" clip-rule="evenodd"
viewBox="0 0 35600 20025"
 xmlns:xlink="http://www.w3.org/1999/xlink">
 <g id="Layer_x0020_1">
  <metadata id="CorelCorpID_0Corel-Layer"/>
  <g id="_2033248130864">
   <polygon fill="#E6E7E8" points="0,0 35600,0 35600,20025 0,20025 "/>
   <path fill="#373435" fill-opacity="0.031373" d="M2082 17547c68,104 112,203 155,312 32,64 49,183 199,183 44,0 107,-14 163,-45 63,-33 111,-83 136,-159l60 -202 146 -72 10 10c-20,77 -25,149 -25,206 0,170 146,234 262,234 68,0 129,-34 129,-95 0,-81 -34,-217 -78,-339 68,-68 136,-136 214,-191l12 6c34,144 53,287 53,381 0,93 -41,196 -75,264 -70,132 -194,238 -344,238 -114,0 -241,-58 -328,-163l-5 0c-82,101 -209,193 -412,193l-63 0c-10,134 -39,229 -83,314 -121,237 -480,404 -818,404 -470,0 -706,-272 -706,-633 0,-223 73,-431 185,-578l92 38c-70,134 -117,262 -117,385 0,338 275,499 592,499 294,0 658,-187 724,-404 -25,-237 -114,-348 -250,-565 41,-72 94,-144 160,-221l12 0 0 0zm5421 -1274c99,62 196,136 291,221 -53,74 -119,142 -201,202 -95,-77 -190,-143 -287,-213 66,-74 131,-146 197,-210l0 0zm51 926c-160,0 -291,105 -291,183 0,168 320,219 703,217 -48,-196 -216,-400 -412,-400zm-359 895c208,0 390,-6 529,-41 155,-39 286,-118 286,-171 0,-15 0,-31 -5,-46 -87,8 -187,8 -274,8 -282,0 -498,-64 -583,-222 -21,-44 -36,-93 -36,-149 0,-152 66,-303 182,-406 97,-85 204,-138 313,-138 197,0 354,158 464,408 60,136 101,293 101,491 0,132 -36,243 -118,326 -153,148 -435,204 -867,204l-196 0 0 0 -51 0c-107,0 -184,-19 -245,-66l-10 0c3,25 5,50 5,72 0,97 -32,221 -97,320 -192,287 -400,410 -580,410 -182,0 -405,-70 -606,-161l36 -70c65,27 155,46 279,46 325,0 752,-314 805,-619 -12,-25 -34,-58 -65,-93 -95,-113 -155,-208 -211,-307 48,-95 92,-171 133,-239l17 -2c139,282 265,445 546,445l44 0 0 0 204 0 0 0zm-1408 299c24,-130 26,-276 26,-413l0 -202c0,-377 -48,-926 -87,-1282 68,-75 163,-161 238,-219l22 6c51,450 63,972 63,1452 0,126 -5,250 -17,340 -7,114 -73,201 -214,332l-31 -14 0 0zm-1449 -596c7,177 94,318 398,318 189,0 349,-50 526,-135 32,-14 49,-33 49,-49 0,-111 -85,-258 -228,-392 -139,-126 -323,-237 -495,-311 -59,-25 -78,-52 -78,-77 0,-51 68,-158 124,-235l19 -2c197,103 417,256 580,427 148,157 240,316 240,489 0,128 -39,250 -102,361 -216,109 -446,192 -674,192 -277,0 -466,-130 -466,-436 0,-33 0,-84 12,-150l95 0 0 0zm-501 -503l172 278c63,103 122,215 122,392l0 227c0,183 -117,379 -306,573 -148,132 -279,188 -400,188 -180,0 -386,-56 -624,-159l27 -70c75,21 162,37 269,37 342,-2 692,-252 852,-557 19,-35 26,-68 26,-90 0,-36 -19,-75 -34,-110 -87,-165 -184,-315 -291,-453 56,-89 112,-174 173,-258l14 2z"/>
   <polygon fill="#373435" fill-opacity="0.078431" points="15577,2666 15214,3070 15200,3169 15232,3161 15262,3153 15292,3147 15320,3142 15347,3138 15373,3135 15398,3133 15422,3132 15456,3134 15490,3139 15522,3148 15552,3159 15579,3173 15779,2951 15865,2899 15939,2843 16001,2782 15622,3204 15636,3215 15661,3240 15684,3268 15704,3298 15721,3331 15734,3366 15745,3403 15753,3443 15757,3486 15759,3530 15757,3577 15752,3622 15744,3664 15733,3704 15719,3741 15701,3776 15681,3808 15657,3838 15209,4336 15245,4343 15325,4352 15409,4355 15498,4352 15582,4341 15664,4322 15741,4297 15815,4263 15885,4223 15951,4175 16014,4120 16071,4060 12510,8020 12513,8056 17884,2083 17807,2175 17741,2276 17685,2385 17639,2503 17603,2631 17578,2767 17563,2911 17557,3065 17560,3151 18260,2373 18305,2326 18354,2285 18406,2250 18461,2222 18520,2200 18582,2184 18648,2175 18717,2171 18767,2173 18815,2178 18861,2187 18905,2200 18947,2216 18988,2235 19026,2258 19063,2285 19097,2315 19128,2347 19156,2382 19181,2420 19203,2460 19222,2502 19237,2548 19250,2595 19756,2475 18178,4230 18252,4266 18284,4277 20332,1999 20300,2037 20271,2078 20246,2121 20224,2164 20205,2208 20190,2253 20178,2299 20169,2346 20164,2393 20162,2441 20166,2515 20177,2586 20195,2654 20220,2719 20250,2776 20696,2281 20712,2264 20731,2249 20764,2228 20799,2209 20838,2193 20880,2180 20925,2170 20972,2163 21023,2159 21077,2157 21128,2158 21177,2163 21222,2169 21264,2179 21302,2191 21337,2206 21369,2223 21398,2243 21423,2266 21446,2293 21467,2323 21486,2356 21502,2393 21516,2434 21528,2477 21537,2525 22050,2507 21336,3301 21350,3305 21376,3314 21407,3326 21436,3338 21463,3351 21470,3355 22689,1999 22657,2037 22629,2078 22603,2121 22581,2164 22562,2208 22547,2253 22535,2299 22526,2346 22521,2393 22520,2441 22523,2515 22534,2586 22552,2654 22578,2719 22607,2776 23053,2281 23069,2264 23088,2249 23121,2228 23156,2209 23195,2193 23237,2180 23282,2170 23329,2163 23380,2159 23434,2157 23486,2158 23534,2163 23579,2169 23621,2179 23659,2191 23694,2206 23726,2223 23755,2243 23780,2266 23803,2293 23825,2323 23843,2356 23859,2393 23873,2434 23885,2477 23894,2525 24407,2507 23693,3301 23707,3305 23733,3314 23764,3326 23793,3338 23820,3351 23844,3364 23866,3378 23885,3392 23902,3407 23916,3423 23928,3439 23939,3456 23948,3474 23955,3493 23961,3512 23965,3533 23968,3554 23968,3576 23966,3610 23961,3644 23951,3676 23937,3707 23920,3737 23898,3766 23371,4352 23468,4355 23549,4354 23626,4350 23700,4342 23770,4332 23838,4319 23901,4303 23962,4285 24019,4263 24072,4238 24123,4211 24170,4180 24214,4146 24255,4109 24293,4070 20903,7840 21500,7840 21502,9196 20127,10725 21230,10725 20850,15252 18219,18177 22262,17054 19590,20025 16558,20025 16250,20025 14226,20025 12901,20025 12900,20025 12867,20025 11765,20025 10906,20025 10677,20025 10543,20025 9947,20025 9830,20025 9801,20025 9278,20025 8655,20025 8396,20025 8170,20025 8159,20025 7590,20025 7556,20025 7098,20025 6921,20025 6843,20025 6481,20025 6298,20025 6245,20025 5802,20025 5199,20025 5128,20025 4741,20025 4458,20025 4298,20025 4124,20025 3975,20025 3578,20025 3180,20025 3013,20025 2529,20025 2388,20025 2094,20025 1751,20025 1715,20025 1102,20025 497,20025 426,20025 44,20025 0,20025 0,19990 0,19851 0,19740 0,19684 0,19511 0,19511 0,19254 0,19120 0,19075 0,18683 0,18599 0,18462 0,17962 0,17337 0,17260 0,16887 0,16629 0,15663 0,14145 11119,1779 11402,2982 12484,1779 12120,3150 12778,2417 12907,2905 13920,1779 13574,3366 14806,1996 14779,2028 14754,2061 14732,2097 14710,2136 14690,2178 14672,2223 14655,2271 14640,2321 14626,2375 14614,2431 14954,2489 15145,2277 15166,2254 15189,2234 15212,2216 15237,2201 15263,2189 15290,2180 15318,2173 15348,2169 15378,2168 15409,2169 15438,2173 15466,2178 15492,2187 15516,2197 15539,2210 15560,2226 15580,2244 15598,2264 15613,2285 15627,2308 15637,2333 15645,2359 15651,2387 15655,2417 15656,2448 15655,2485 15650,2520 15642,2553 15630,2584 15616,2613 15598,2641 "/>
   <g>
    <polygon fill="#69A62D" fill-rule="nonzero" points="12307,5824 13345,17058 17808,18292 22262,17054 23293,5824 12307,5824 "/>
    <polygon fill="#FEFEFE" fill-rule="nonzero" points="19479,14183 19665,12253 17800,12253 14600,12253 14413,10942 17789,9328 14412,9315 14137,7840 17800,7840 21500,7840 21502,9196 18164,10725 21230,10725 20850,15252 17801,16265 17800,16265 14838,15178 14663,13056 16096,13056 16220,14116 17800,14576 17801,14576 19479,14183 "/>
    <path fill="#727376" fill-rule="nonzero" d="M11714 4309l-595 -2530 527 0 376 1738 462 -1738 609 0 442 1768 385 -1768 514 0 -610 2530 -547 0 -499 -1892 -502 1892 -562 0zm2864 -671l470 -57c15,120 55,212 121,276 65,63 144,95 236,95 100,0 183,-38 252,-114 67,-76 102,-178 102,-308 0,-122 -33,-219 -98,-290 -65,-72 -145,-108 -239,-108 -62,0 -136,13 -222,37l54 -393c131,3 230,-26 299,-86 69,-60 103,-141 103,-242 0,-85 -25,-153 -76,-204 -51,-51 -118,-76 -202,-76 -83,0 -154,29 -212,86 -59,58 -94,142 -107,253l-445 -76c31,-154 77,-277 140,-370 63,-92 151,-164 263,-217 111,-53 237,-79 376,-79 238,0 429,76 573,228 118,125 178,267 178,424 0,223 -122,401 -365,534 145,31 261,100 348,209 86,108 130,239 130,392 0,222 -81,412 -243,568 -162,157 -364,235 -605,235 -229,0 -418,-66 -569,-198 -150,-132 -237,-305 -262,-519zm2082 671l0 -484 484 0 0 484 -484 0zm2608 -933l495 152c-76,279 -203,486 -380,621 -176,135 -400,203 -672,203 -336,0 -612,-115 -829,-345 -216,-230 -325,-544 -325,-942 0,-421 109,-749 327,-982 217,-233 503,-350 858,-350 310,0 561,92 754,275 116,108 202,264 260,467l-506 120c-30,-130 -92,-234 -187,-310 -95,-76 -211,-114 -346,-114 -188,0 -341,67 -457,202 -118,135 -176,352 -176,654 0,319 58,547 173,683 115,136 265,203 449,203 136,0 253,-42 351,-129 98,-87 168,-222 211,-408zm799 113l498 -49c31,167 90,289 182,367 91,78 214,117 369,117 164,0 287,-35 371,-104 83,-70 124,-151 124,-244 0,-60 -17,-111 -52,-153 -35,-42 -96,-78 -183,-109 -60,-21 -195,-58 -407,-111 -273,-68 -464,-152 -574,-251 -155,-140 -233,-310 -233,-511 0,-129 37,-250 109,-363 73,-112 178,-198 316,-257 137,-58 302,-88 496,-88 316,0 555,70 715,211 160,141 243,328 252,563l-513 18c-22,-131 -68,-225 -139,-282 -72,-57 -179,-86 -321,-86 -148,0 -263,31 -346,92 -54,40 -81,92 -81,158 0,60 26,111 76,154 65,54 220,111 468,170 248,58 432,119 550,182 119,63 212,148 279,257 67,109 101,244 101,403 0,145 -40,281 -121,408 -81,126 -194,220 -341,282 -148,62 -332,92 -551,92 -320,0 -566,-73 -737,-221 -171,-147 -273,-363 -307,-645zm2357 0l498 -49c31,167 91,289 182,367 91,78 214,117 369,117 164,0 288,-35 371,-104 83,-70 124,-151 124,-244 0,-60 -17,-111 -52,-153 -35,-42 -96,-78 -183,-109 -60,-21 -195,-58 -407,-111 -273,-68 -464,-152 -574,-251 -155,-140 -232,-310 -232,-511 0,-129 36,-250 109,-363 73,-112 177,-198 315,-257 137,-58 302,-88 496,-88 317,0 555,70 715,211 160,141 243,328 252,563l-513 18c-21,-131 -68,-225 -139,-282 -72,-57 -179,-86 -321,-86 -148,0 -263,31 -346,92 -54,40 -81,92 -81,158 0,60 26,111 76,154 65,54 221,111 468,170 248,58 432,119 550,182 119,63 212,148 279,257 67,109 101,244 101,403 0,145 -40,281 -121,408 -81,126 -194,220 -341,282 -148,62 -331,92 -551,92 -320,0 -566,-73 -737,-221 -171,-147 -273,-363 -307,-645z"/>
   </g>
  </g>
 </g>
</svg>
